<?xml version="1.0" standalone="no"?>
<!DOCTYPE svg PUBLIC "-//W3C//DTD SVG 20010904//EN"
 "http://www.w3.org/TR/2001/REC-SVG-20010904/DTD/svg10.dtd">
<svg version="1.0" xmlns="http://www.w3.org/2000/svg"
 width="312.000000pt" height="301.000000pt" viewBox="0 0 312.000000 301.000000"
 preserveAspectRatio="xMidYMid meet">

<g transform="translate(0.000000,301.000000) scale(0.100000,-0.100000)"
fill="#000000" stroke="none">
<path d="M1325 2975 c-88 -15 -176 -39 -268 -71 -88 -32 -287 -134 -294 -151
-3 -7 23 -50 57 -97 l62 -85 91 49 c154 82 309 130 470 145 l67 7 0 109 0 109
-57 -1 c-32 -1 -89 -7 -128 -14z"/>
<path d="M1630 2881 l0 -109 68 -7 c85 -9 213 -38 304 -71 66 -24 209 -94 234
-115 12 -10 29 9 108 118 l37 52 -38 24 c-118 74 -257 134 -403 173 -75 21
-216 44 -267 44 l-43 0 0 -109z"/>
<path d="M543 2578 c-52 -51 -124 -131 -159 -178 -59 -79 -194 -324 -194 -353
0 -12 197 -83 206 -75 2 3 26 49 53 104 65 133 137 231 243 336 l89 87 -63 86
c-34 47 -66 85 -71 85 -5 0 -52 -42 -104 -92z"/>
<path d="M2414 2584 l-62 -86 83 -79 c102 -98 194 -225 253 -349 25 -52 46
-97 48 -99 2 -2 51 12 108 31 l105 34 -34 78 c-43 98 -103 201 -173 296 -59
80 -237 260 -256 260 -6 0 -39 -39 -72 -86z"/>
</g>
</svg>
