<?xml version="1.0" standalone="no"?>
<!DOCTYPE svg PUBLIC "-//W3C//DTD SVG 20010904//EN"
 "http://www.w3.org/TR/2001/REC-SVG-20010904/DTD/svg10.dtd">
<svg version="1.0" xmlns="http://www.w3.org/2000/svg"
 width="500.000000pt" height="500.000000pt" viewBox="0 0 500.000000 500.000000"
 preserveAspectRatio="xMidYMid meet">

<g transform="translate(0.000000,500.000000) scale(0.100000,-0.100000)"
fill="#000000" stroke="none">
<path d="M1336 3538 c-20 -18 -41 -73 -97 -258 -71 -232 -72 -237 -73 -350 -1
-121 17 -353 35 -455 15 -80 53 -153 142 -267 127 -161 209 -279 235 -337 22
-48 26 -71 27 -153 0 -53 5 -101 10 -107 42 -41 238 -129 391 -176 95 -28 120
-33 130 -23 9 10 10 89 5 333 -7 310 -8 322 -33 393 -37 103 -77 161 -208 297
-76 79 -135 152 -174 215 -33 52 -74 114 -93 137 -38 47 -106 79 -152 70 -27
-6 -29 -4 -35 31 -11 69 -6 119 30 303 21 107 34 201 31 224 -12 116 -104 182
-171 123z m100 -73 c23 -35 15 -138 -26 -329 -31 -150 -32 -165 -22 -233 11
-67 10 -77 -8 -111 -38 -70 -28 -103 103 -325 41 -71 85 -153 97 -183 18 -44
27 -54 46 -54 14 0 27 7 30 15 8 19 -40 120 -125 264 -123 208 -128 225 -86
266 29 30 74 33 111 8 15 -9 68 -80 119 -157 68 -104 121 -170 201 -251 113
-115 152 -172 187 -279 18 -54 21 -93 24 -343 3 -182 1 -283 -5 -283 -41 0
-311 111 -389 160 -33 20 -33 20 -33 98 0 139 -34 209 -215 442 -136 176 -173
236 -185 302 -19 107 -51 474 -45 513 3 22 22 92 41 155 20 63 49 162 66 220
37 129 51 154 78 140 11 -6 27 -22 36 -35z"/>
<path d="M3561 3544 c-34 -24 -61 -91 -61 -153 0 -30 16 -135 36 -233 32 -155
35 -188 28 -241 l-9 -62 -32 3 c-48 5 -115 -29 -155 -79 -19 -24 -63 -89 -98
-144 -44 -70 -99 -138 -184 -225 -135 -140 -172 -201 -206 -335 -18 -73 -20
-108 -18 -375 l3 -295 33 3 c85 8 335 105 448 174 l52 31 4 106 c6 139 21 171
200 409 153 204 181 248 196 305 6 21 21 151 33 289 25 277 27 247 -37 463
-95 318 -104 344 -126 360 -29 20 -78 19 -107 -1z m69 -48 c0 -2 -9 -6 -20 -9
-11 -3 -18 -1 -14 4 5 9 34 13 34 5z m-12 -30 c-7 -8 -15 -12 -17 -11 -5 6 10
25 20 25 5 0 4 -6 -3 -14z m-28 -6 c0 -5 -5 -10 -11 -10 -5 0 -7 5 -4 10 3 6
8 10 11 10 2 0 4 -4 4 -10z m68 -29 c7 -18 7 -33 0 -42 -8 -11 -9 -11 -5 2 3
9 -1 28 -8 43 -8 14 -10 26 -5 26 4 0 13 -13 18 -29z m-71 -53 c-3 -8 -6 -5
-6 6 -1 11 2 17 5 13 3 -3 4 -12 1 -19z m-10 -100 c-3 -8 -6 -5 -6 6 -1 11 2
17 5 13 3 -3 4 -12 1 -19z m38 -65 c-9 -49 -23 -28 -17 26 3 35 6 41 14 27 6
-10 7 -34 3 -53z m114 -28 c0 -5 -4 -3 -9 5 -5 8 -9 22 -9 30 0 16 17 -16 18
-35z m-10 -40 c0 -5 -4 -3 -9 5 -5 8 -9 22 -9 30 0 16 17 -16 18 -35z m-100
-35 c1 -13 0 -13 -9 0 -5 8 -9 24 -9 35 l0 20 9 -20 c5 -11 9 -27 9 -35z m137
-17 c-8 -8 -12 -3 -21 27 l-7 25 17 -23 c9 -13 14 -26 11 -29z m-109 15 c-3
-8 -6 -5 -6 6 -1 11 2 17 5 13 3 -3 4 -12 1 -19z m70 -10 c-3 -8 -6 -5 -6 6
-1 11 2 17 5 13 3 -3 4 -12 1 -19z m68 -116 c-3 -3 -5 1 -6 9 -1 8 -4 3 -9
-11 -5 -18 -7 -7 -7 35 l0 60 14 -44 c7 -25 11 -47 8 -49z m-14 -232 c-8 -83
-8 -82 -8 50 0 103 2 123 8 85 4 -27 4 -88 0 -135z m16 128 c-3 -7 -5 -2 -5
12 0 14 2 19 5 13 2 -7 2 -19 0 -25z m-120 -58 l15 -25 -21 25 c-11 14 -20 34
-20 45 1 20 1 20 6 0 3 -10 12 -31 20 -45z m-17 -29 c0 -8 -3 -11 -7 -7 -8 7
-9 11 -12 37 0 5 -5 7 -11 4 -6 -4 -7 1 -3 11 5 14 8 13 19 -7 7 -13 13 -30
14 -38z m-107 -2 c29 -16 37 -28 37 -62 0 -35 -16 -67 -35 -67 -7 0 -16 -6
-18 -12 -4 -10 -6 -10 -6 0 -1 8 8 16 20 19 16 5 19 11 14 32 -4 19 -3 22 4
11 7 -11 10 -6 9 18 -1 17 -5 29 -10 26 -5 -3 -7 0 -6 7 2 6 -3 14 -11 17 -8
2 -11 0 -7 -6 3 -6 1 -14 -5 -18 -8 -4 -9 -3 -5 4 4 8 0 12 -11 12 -32 0 -79
-56 -154 -182 -55 -94 -93 -144 -163 -215 -50 -51 -95 -99 -101 -106 -54 -73
-91 -142 -112 -210 -23 -75 -25 -102 -30 -326 l-6 -243 21 11 c11 6 27 11 34
11 17 -1 -50 -30 -69 -30 -13 0 -14 39 -11 283 4 273 5 284 29 348 41 108 76
158 187 269 62 62 127 140 160 190 106 166 127 193 157 211 35 22 58 24 88 8z
m2 -78 c0 -16 -3 -27 -7 -24 -13 7 -7 53 6 53 1 0 1 -13 1 -29z m114 -14 c-11
-39 -11 -39 0 -33 20 13 -3 -36 -25 -53 -13 -10 -24 -24 -24 -30 0 -6 -5 -11
-10 -11 -6 0 3 27 20 60 16 33 30 71 30 85 0 15 4 24 9 20 6 -3 6 -18 0 -38z
m-132 -92 c-19 -28 -26 -32 -31 -20 -3 9 -2 13 3 10 6 -3 18 8 27 25 10 16 20
28 22 25 2 -2 -7 -20 -21 -40z m217 -64 c-15 -15 -16 -14 -5 6 6 12 12 41 13
65 l2 43 3 -49 c3 -37 0 -53 -13 -65z m-286 9 c-7 -10 -14 -18 -15 -16 -6 6 9
36 18 36 5 0 4 -9 -3 -20z m26 -12 c-10 -33 -43 -78 -57 -78 -7 1 -5 6 4 13
10 7 24 29 32 50 17 40 33 51 21 15z m-131 -1 c3 -8 -1 -14 -8 -14 -7 0 -11 6
-8 14 3 7 6 13 8 13 2 0 5 -6 8 -13z m378 -70 c-19 -29 -21 -30 -21 -9 0 13 4
20 10 17 5 -3 13 7 16 22 4 15 9 22 12 15 2 -7 -6 -27 -17 -45z m-171 -9 c0 6
5 12 12 12 9 0 9 -3 0 -12 -14 -14 -64 -19 -56 -6 3 4 10 6 15 3 5 -4 9 0 9 7
0 9 3 9 10 -2 6 -10 10 -11 10 -2z m-166 -60 c-8 -15 -12 -28 -9 -28 4 0 3 -5
0 -10 -4 -6 -11 -8 -16 -4 -6 4 -6 11 1 19 7 8 8 20 4 26 -5 8 -3 9 6 4 9 -6
12 -4 8 7 -4 8 0 15 7 15 11 0 11 -6 -1 -29z m119 2 c3 -11 1 -18 -4 -15 -5 4
-7 -8 -5 -24 2 -17 -1 -28 -6 -25 -5 3 -7 12 -4 19 2 7 -1 18 -7 24 -8 8 -8
11 1 11 7 0 12 7 12 15 0 21 7 19 13 -5z m-40 -47 c-8 -23 -33 -60 -33 -50 0
11 29 67 35 67 2 0 2 -8 -2 -17z m1 -59 c3 -8 2 -12 -4 -9 -6 3 -10 10 -10 16
0 14 7 11 14 -7z m36 -5 c0 -6 -4 -7 -10 -4 -5 3 -10 11 -10 16 0 6 5 7 10 4
6 -3 10 -11 10 -16z m-164 -11 c5 -7 3 -8 -6 -3 -9 5 -10 2 -5 -14 4 -12 2
-21 -4 -21 -6 0 -11 11 -11 25 0 26 14 33 26 13z m89 -8 c3 -5 1 -10 -4 -10
-6 0 -11 5 -11 10 0 6 2 10 4 10 3 0 8 -4 11 -10z m96 -43 c-10 -9 -11 -8 -5
6 3 10 9 15 12 12 3 -3 0 -11 -7 -18z m-121 -1 c0 -2 -8 -10 -17 -17 -16 -13
-17 -12 -4 4 13 16 21 21 21 13z m-173 -488 c-2 -13 -4 -3 -4 22 0 25 2 35 4
23 2 -13 2 -33 0 -45z m-1 -133 c2 -12 -2 -12 -17 -5 -23 13 -25 22 -2 13 12
-5 14 -3 8 8 -5 8 -4 11 0 6 5 -4 10 -14 11 -22z m-36 -19 c0 -2 -7 -7 -16
-10 -8 -3 -12 -2 -9 4 6 10 25 14 25 6z m-52 -25 c11 -6 10 -10 -4 -15 -9 -3
-19 -4 -22 -1 -3 3 1 5 9 5 11 0 11 2 -1 10 -8 5 -10 10 -5 10 6 0 16 -4 23
-9z m-48 -25 c0 -2 -13 -9 -30 -15 -35 -12 -41 -5 -7 9 25 10 37 12 37 6z"/>
<path d="M3631 2634 c-12 -27 -11 -28 4 -12 10 9 16 21 13 28 -2 7 -10 -1 -17
-16z"/>
</g>
</svg>
