<?xml version="1.0" standalone="no"?>
<!DOCTYPE svg PUBLIC "-//W3C//DTD SVG 20010904//EN"
 "http://www.w3.org/TR/2001/REC-SVG-20010904/DTD/svg10.dtd">
<svg version="1.0" xmlns="http://www.w3.org/2000/svg"
 width="500.000000pt" height="500.000000pt" viewBox="0 0 500.000000 500.000000"
 preserveAspectRatio="xMidYMid meet">

<g transform="translate(0.000000,500.000000) scale(0.100000,-0.100000)"
fill="#000000" stroke="none">
<path d="M2295 3541 c-125 -26 -206 -55 -303 -107 -319 -174 -528 -501 -549
-861 -41 -701 636 -1255 1314 -1074 155 41 331 137 451 246 356 322 444 844
212 1265 -142 258 -376 440 -665 517 -127 34 -334 40 -460 14z m-95 -94 c0
-25 -56 -76 -125 -112 -87 -46 -203 -134 -253 -190 -32 -36 -46 -44 -87 -51
-48 -7 -49 -6 -35 12 121 157 252 257 430 330 66 27 70 27 70 11z m669 -18
c151 -63 293 -169 395 -294 l39 -47 -49 8 c-42 6 -56 15 -114 74 -69 70 -142
122 -245 172 -47 23 -68 41 -88 74 -15 24 -23 44 -19 44 4 0 41 -14 81 -31z
m-557 -143 c51 -18 105 -39 121 -46 l27 -13 0 -162 0 -162 -161 -112 -161
-113 -157 54 -156 53 -3 136 -3 137 58 59 c32 32 74 71 94 86 66 50 193 117
221 117 15 0 69 -15 120 -34z m576 -3 c89 -49 156 -99 219 -164 l51 -54 3 -80
c2 -44 3 -107 1 -140 l-2 -61 -155 -53 c-90 -31 -160 -49 -167 -45 -7 5 -82
57 -165 116 l-153 109 0 154 0 154 28 15 c22 11 144 59 202 79 37 13 77 4 138
-30z m-707 -833 c32 -96 58 -181 58 -188 1 -7 -39 -73 -89 -146 l-89 -134 -63
14 c-195 45 -218 54 -245 97 -62 98 -106 225 -119 343 -6 59 -5 64 27 110 37
55 127 166 142 175 5 4 79 -17 164 -45 l155 -52 59 -174z m1041 227 c25 -30
65 -80 87 -112 35 -50 41 -66 41 -110 0 -74 -34 -196 -80 -289 -22 -45 -46
-89 -53 -98 -13 -17 -227 -78 -273 -78 -19 0 -40 25 -113 133 l-89 134 61 183
62 182 150 53 c83 29 152 54 155 54 3 0 26 -23 52 -52z m-1647 -239 c15 -125
71 -293 125 -368 24 -33 30 -155 8 -148 -19 6 -75 93 -112 173 -67 143 -96
265 -96 399 l0 81 34 -37 c28 -31 35 -48 41 -100z m1912 25 c-8 -124 -24 -201
-67 -313 -35 -89 -125 -234 -140 -225 -18 11 -12 115 9 143 54 76 109 241 126
380 5 39 15 63 37 88 17 19 33 34 36 34 3 0 2 -48 -1 -107z m-705 -376 l90
-138 -18 -27 c-24 -38 -127 -163 -152 -186 -33 -29 -172 -42 -302 -28 -103 11
-106 12 -138 49 -59 68 -142 179 -142 192 0 13 138 229 168 264 14 16 34 17
210 15 l195 -3 89 -138z m-292 -442 c58 0 128 3 156 7 47 6 55 4 109 -30 l58
-37 -32 -12 c-68 -28 -213 -45 -331 -40 -97 5 -261 34 -276 50 -3 3 23 21 58
40 56 32 68 35 108 29 25 -4 92 -7 150 -7z"/>
</g>
</svg>
